<svg width="53" height="43" viewBox="0 0 53 43" fill="none" xmlns="http://www.w3.org/2000/svg">
<g clip-path="url(#clip0_522_31544)">
<path d="M17.2251 29.5625C26.7402 29.5625 34.4501 22.9445 34.4501 14.7812C34.4501 6.61797 26.7402 0 17.2251 0C7.7099 0 5.18447e-05 6.61797 5.18447e-05 14.7812C5.18447e-05 18.023 1.2174 21.0213 3.27943 23.4652C2.98958 24.2547 2.55896 24.9518 2.10349 25.5396C1.70599 26.0604 1.30021 26.4635 1.00208 26.7406C0.853021 26.875 0.728802 26.9842 0.645989 27.0514C0.604583 27.085 0.571458 27.1102 0.554896 27.1186L0.538333 27.1354C0.0828643 27.4797 -0.115886 28.0844 0.0663019 28.6303C0.248489 29.1762 0.753646 29.5625 1.32505 29.5625C3.13036 29.5625 4.95224 29.0922 6.46771 28.5127C7.22958 28.2188 7.94177 27.8912 8.56287 27.5553C11.1052 28.8318 14.0616 29.5625 17.2251 29.5625ZM37.1001 14.7812C37.1001 24.2127 28.8933 31.3178 19.1711 32.166C21.1835 38.4145 27.8582 43 35.7751 43C38.9385 43 41.8949 42.2693 44.4455 40.9928C45.0666 41.3287 45.7705 41.6562 46.5324 41.9502C48.0479 42.5297 49.8697 43 51.6751 43C52.2465 43 52.7599 42.6221 52.9338 42.0678C53.1077 41.5135 52.9172 40.9088 52.4535 40.5645L52.4369 40.5477C52.4204 40.5309 52.3872 40.5141 52.3458 40.4805C52.263 40.4133 52.1388 40.3125 51.9897 40.1697C51.6916 39.8926 51.2858 39.4895 50.8883 38.9688C50.4329 38.3809 50.0022 37.6754 49.7124 36.8943C51.7744 34.4588 52.9918 31.4605 52.9918 28.2104C52.9918 20.4166 45.961 14.0254 37.0421 13.4711C37.0752 13.8994 37.0918 14.3361 37.0918 14.7729L37.1001 14.7812Z" fill="#1776BA"/>
</g>
<defs>
<clipPath id="clip0_522_31544">
<rect width="53" height="43" fill="white"/>
</clipPath>
</defs>
</svg>
