<svg width="20" height="20" viewBox="0 0 20 20" fill="none" xmlns="http://www.w3.org/2000/svg">
<g clip-path="url(#clip0_666_2579)">
<path d="M0 10C0 7.34784 1.05357 4.8043 2.92893 2.92893C4.8043 1.05357 7.34784 0 10 0C12.6522 0 15.1957 1.05357 17.0711 2.92893C18.9464 4.8043 20 7.34784 20 10C20 12.6522 18.9464 15.1957 17.0711 17.0711C15.1957 18.9464 12.6522 20 10 20C7.34784 20 4.8043 18.9464 2.92893 17.0711C1.05357 15.1957 0 12.6522 0 10ZM12.5 13.75C12.5 12.6992 11.8555 11.8008 10.9375 11.4336V3.4375C10.9375 2.91797 10.5195 2.5 10 2.5C9.48047 2.5 9.0625 2.91797 9.0625 3.4375V11.4336C8.14453 11.8047 7.5 12.7031 7.5 13.75C7.5 15.1289 8.62109 16.25 10 16.25C11.3789 16.25 12.5 15.1289 12.5 13.75ZM5.625 6.875C5.95652 6.875 6.27446 6.7433 6.50888 6.50888C6.7433 6.27446 6.875 5.95652 6.875 5.625C6.875 5.29348 6.7433 4.97554 6.50888 4.74112C6.27446 4.5067 5.95652 4.375 5.625 4.375C5.29348 4.375 4.97554 4.5067 4.74112 4.74112C4.5067 4.97554 4.375 5.29348 4.375 5.625C4.375 5.95652 4.5067 6.27446 4.74112 6.50888C4.97554 6.7433 5.29348 6.875 5.625 6.875ZM5 10C5 9.66848 4.8683 9.35054 4.63388 9.11612C4.39946 8.8817 4.08152 8.75 3.75 8.75C3.41848 8.75 3.10054 8.8817 2.86612 9.11612C2.6317 9.35054 2.5 9.66848 2.5 10C2.5 10.3315 2.6317 10.6495 2.86612 10.8839C3.10054 11.1183 3.41848 11.25 3.75 11.25C4.08152 11.25 4.39946 11.1183 4.63388 10.8839C4.8683 10.6495 5 10.3315 5 10ZM16.25 11.25C16.5815 11.25 16.8995 11.1183 17.1339 10.8839C17.3683 10.6495 17.5 10.3315 17.5 10C17.5 9.66848 17.3683 9.35054 17.1339 9.11612C16.8995 8.8817 16.5815 8.75 16.25 8.75C15.9185 8.75 15.6005 8.8817 15.3661 9.11612C15.1317 9.35054 15 9.66848 15 10C15 10.3315 15.1317 10.6495 15.3661 10.8839C15.6005 11.1183 15.9185 11.25 16.25 11.25ZM15.625 5.625C15.625 5.29348 15.4933 4.97554 15.2589 4.74112C15.0245 4.5067 14.7065 4.375 14.375 4.375C14.0435 4.375 13.7255 4.5067 13.4911 4.74112C13.2567 4.97554 13.125 5.29348 13.125 5.625C13.125 5.95652 13.2567 6.27446 13.4911 6.50888C13.7255 6.7433 14.0435 6.875 14.375 6.875C14.7065 6.875 15.0245 6.7433 15.2589 6.50888C15.4933 6.27446 15.625 5.95652 15.625 5.625Z" fill="#585867"/>
</g>
<defs>
<clipPath id="clip0_666_2579">
<rect width="20" height="20" fill="white"/>
</clipPath>
</defs>
</svg>
