<svg width="28" height="25" viewBox="0 0 28 25" fill="none" xmlns="http://www.w3.org/2000/svg">
<path d="M1.55556 5.83008C0.627083 5.29297 0 4.28223 0 3.125C0 1.40137 1.39514 0 3.11111 0C4.26319 0 5.26944 0.629883 5.80417 1.5625H22.1958C22.7306 0.629883 23.7368 0 24.8889 0C26.6049 0 28 1.40137 28 3.125C28 4.28223 27.3729 5.29297 26.4444 5.83008V19.1699C27.3729 19.7119 28 20.7178 28 21.875C28 23.5986 26.6049 25 24.8889 25C23.7368 25 22.7306 24.3701 22.1958 23.4375H5.80417C5.26458 24.3701 4.26319 25 3.11111 25C1.39514 25 0 23.5986 0 21.875C0 20.7178 0.627083 19.707 1.55556 19.1699V5.83008ZM22.1958 4.6875H5.80417C5.53194 5.16113 5.13819 5.55664 4.66667 5.83008V19.1699C5.13819 19.4434 5.53194 19.8389 5.80417 20.3125H22.1958C22.4681 19.8389 22.8618 19.4434 23.3333 19.1699V5.83008C22.8618 5.55664 22.4681 5.16113 22.1958 4.6875ZM6.22222 7.8125C6.22222 6.94824 6.91736 6.25 7.77778 6.25H14C14.8604 6.25 15.5556 6.94824 15.5556 7.8125V12.5C15.5556 13.3643 14.8604 14.0625 14 14.0625H7.77778C6.91736 14.0625 6.22222 13.3643 6.22222 12.5V7.8125ZM12.4444 15.625H14C15.716 15.625 17.1111 14.2236 17.1111 12.5V10.9375H20.2222C21.0826 10.9375 21.7778 11.6357 21.7778 12.5V17.1875C21.7778 18.0518 21.0826 18.75 20.2222 18.75H14C13.1396 18.75 12.4444 18.0518 12.4444 17.1875V15.625Z" fill="#4A4A4A"/>
</svg>
