<svg width="14" height="16" viewBox="0 0 14 16" fill="none" xmlns="http://www.w3.org/2000/svg">
<g clip-path="url(#clip0_666_2558)">
<path d="M0 3C0 1.34375 1.34375 0 3 0H6V5.95937C6 6.37812 6.48438 6.6125 6.8125 6.35L8.5 5L10.1875 6.35C10.5156 6.6125 11 6.37812 11 5.95937V0H12H13C13.5531 0 14 0.446875 14 1V11C14 11.5531 13.5531 12 13 12V14C13.5531 14 14 14.4469 14 15C14 15.5531 13.5531 16 13 16H12H3C1.34375 16 0 14.6562 0 13V3ZM2 13C2 13.5531 2.44688 14 3 14H11V12H3C2.44688 12 2 12.4469 2 13Z" fill="#585867"/>
</g>
<defs>
<clipPath id="clip0_666_2558">
<rect width="14" height="16" fill="white"/>
</clipPath>
</defs>
</svg>
