<svg width="29" height="23" viewBox="0 0 29 23" fill="none" xmlns="http://www.w3.org/2000/svg">
<path d="M6.525 0C7.48641 0 8.40844 0.378626 9.08826 1.05259C9.76808 1.72654 10.15 2.64063 10.15 3.59375C10.15 4.54687 9.76808 5.46096 9.08826 6.13491C8.40844 6.80887 7.48641 7.1875 6.525 7.1875C5.56359 7.1875 4.64156 6.80887 3.96174 6.13491C3.28192 5.46096 2.9 4.54687 2.9 3.59375C2.9 2.64063 3.28192 1.72654 3.96174 1.05259C4.64156 0.378626 5.56359 0 6.525 0ZM23.2 0C24.1614 0 25.0834 0.378626 25.7633 1.05259C26.4431 1.72654 26.825 2.64063 26.825 3.59375C26.825 4.54687 26.4431 5.46096 25.7633 6.13491C25.0834 6.80887 24.1614 7.1875 23.2 7.1875C22.2386 7.1875 21.3166 6.80887 20.6367 6.13491C19.9569 5.46096 19.575 4.54687 19.575 3.59375C19.575 2.64063 19.9569 1.72654 20.6367 1.05259C21.3166 0.378626 22.2386 0 23.2 0ZM0 13.4182C0 10.7723 2.16594 8.625 4.83484 8.625H6.76969C7.49016 8.625 8.17438 8.78223 8.79063 9.06074C8.73172 9.38418 8.70453 9.72109 8.70453 10.0625C8.70453 11.7785 9.46578 13.3193 10.6666 14.375C10.6575 14.375 10.6484 14.375 10.6348 14.375H0.965156C0.435 14.375 0 13.9438 0 13.4182ZM18.3652 14.375C18.3561 14.375 18.347 14.375 18.3334 14.375C19.5388 13.3193 20.2955 11.7785 20.2955 10.0625C20.2955 9.72109 20.2638 9.38867 20.2094 9.06074C20.8256 8.77773 21.5098 8.625 22.2303 8.625H24.1652C26.8341 8.625 29 10.7723 29 13.4182C29 13.9482 28.565 14.375 28.0348 14.375H18.3652ZM10.15 10.0625C10.15 8.91875 10.6083 7.82185 11.4241 7.0131C12.2399 6.20435 13.3463 5.75 14.5 5.75C15.6537 5.75 16.7601 6.20435 17.5759 7.0131C18.3917 7.82185 18.85 8.91875 18.85 10.0625C18.85 11.2062 18.3917 12.3031 17.5759 13.1119C16.7601 13.9206 15.6537 14.375 14.5 14.375C13.3463 14.375 12.2399 13.9206 11.4241 13.1119C10.6083 12.3031 10.15 11.2062 10.15 10.0625ZM5.8 21.8006C5.8 18.4943 8.50516 15.8125 11.8402 15.8125H17.1598C20.4948 15.8125 23.2 18.4943 23.2 21.8006C23.2 22.4609 22.6608 23 21.9902 23H7.00984C6.34375 23 5.8 22.4654 5.8 21.8006Z" fill="#4A4A4A"/>
</svg>
