<svg width="20" height="23" viewBox="0 0 20 23" fill="none"
    xmlns="http://www.w3.org/2000/svg">
    <g clip-path="url(#clip0_523_33086)">
        <path d="M10 11.4286C11.5155 11.4286 12.969 10.8265 14.0406 9.7549C15.1122 8.68326 15.7143 7.22981 15.7143 5.71429C15.7143 4.19876 15.1122 2.74531 14.0406 1.67368C12.969 0.602039 11.5155 0 10 0C8.48448 0 7.03103 0.602039 5.95939 1.67368C4.88775 2.74531 4.28571 4.19876 4.28571 5.71429C4.28571 7.22981 4.88775 8.68326 5.95939 9.7549C7.03103 10.8265 8.48448 11.4286 10 11.4286ZM7.95982 13.5714C3.5625 13.5714 0 17.1339 0 21.5312C0 22.2634 0.59375 22.8571 1.32589 22.8571H18.6741C19.4062 22.8571 20 22.2634 20 21.5312C20 17.1339 16.4375 13.5714 12.0402 13.5714H7.95982Z" fill="#4A4A4A"/>
    </g>
    <defs>
        <clipPath id="clip0_523_33086">
            <rect width="20" height="22.8571" fill="white"/>
        </clipPath>
    </defs>
</svg>
