<svg width="30" height="44" viewBox="0 0 30 44" fill="none" xmlns="http://www.w3.org/2000/svg">
<path d="M6.99998 12.625C6.99998 9.17773 9.86998 6.375 13.4 6.375H16.6C20.13 6.375 23 9.17773 23 12.625V12.9766C23 15.1055 21.89 17.0879 20.06 18.2305L15.84 20.877C13.32 22.459 11.8 25.1836 11.8 28.1035V28.25C11.8 29.9785 13.23 31.375 15 31.375C16.77 31.375 18.2 29.9785 18.2 28.25V28.1133C18.2 27.3125 18.62 26.5703 19.3 26.1406L23.52 23.4941C27.18 21.1895 29.4 17.2344 29.4 12.9766V12.625C29.4 5.7207 23.67 0.125 16.6 0.125H13.4C6.32998 0.125 0.599976 5.7207 0.599976 12.625C0.599976 14.3535 2.02998 15.75 3.79998 15.75C5.56998 15.75 6.99998 14.3535 6.99998 12.625ZM15 43.875C16.0608 43.875 17.0783 43.4634 17.8284 42.7309C18.5785 41.9983 19 41.0048 19 39.9688C19 38.9327 18.5785 37.9392 17.8284 37.2066C17.0783 36.4741 16.0608 36.0625 15 36.0625C13.9391 36.0625 12.9217 36.4741 12.1715 37.2066C11.4214 37.9392 11 38.9327 11 39.9688C11 41.0048 11.4214 41.9983 12.1715 42.7309C12.9217 43.4634 13.9391 43.875 15 43.875Z" fill="#1776BA"/>
</svg>
