<svg width="8" height="13" viewBox="0 0 8 13" fill="none" xmlns="http://www.w3.org/2000/svg">
<path d="M3.39482 1.05374C3.70368 0.735588 4.20525 0.735588 4.51411 1.05374L7.67676 4.31157C7.90408 4.54572 7.97079 4.89441 7.84725 5.19983C7.72371 5.50526 7.43709 5.70378 7.11588 5.70378H0.790574C0.471838 5.70378 0.182752 5.50526 0.0592104 5.19983C-0.0643308 4.89441 0.00485231 4.54572 0.229697 4.31157L3.39235 1.05374H3.39482ZM3.39482 11.9802L0.232168 8.72236C0.00485231 8.48821 -0.0618599 8.13952 0.0616813 7.8341C0.185222 7.52867 0.471838 7.33015 0.793045 7.33015H7.11588C7.43462 7.33015 7.72371 7.52867 7.84725 7.8341C7.97079 8.13952 7.90161 8.48821 7.67676 8.72236L4.51411 11.9802C4.20525 12.2983 3.70368 12.2983 3.39482 11.9802Z" fill="#585867"/>
</svg>
