<svg width="57" height="57" viewBox="0 0 57 57" fill="none" xmlns="http://www.w3.org/2000/svg">
<circle cx="28.5" cy="28.5" r="28" fill="#F0F0F9" stroke="#E0E0EB"/>
<mask id="mask0_666_2821" style="mask-type:alpha" maskUnits="userSpaceOnUse" x="5" y="3" width="48" height="54">
<g clip-path="url(#clip0_666_2821)">
<path d="M29.0816 30.2449C32.6075 30.2449 35.989 28.8355 38.4822 26.3267C40.9754 23.8179 42.3761 20.4153 42.3761 16.8674C42.3761 13.3194 40.9754 9.91678 38.4822 7.408C35.989 4.89922 32.6075 3.48981 29.0816 3.48981C25.5557 3.48981 22.1742 4.89922 19.681 7.408C17.1878 9.91678 15.7871 13.3194 15.7871 16.8674C15.7871 20.4153 17.1878 23.8179 19.681 26.3267C22.1742 28.8355 25.5557 30.2449 29.0816 30.2449ZM24.3351 35.2615C14.1046 35.2615 5.81628 43.6016 5.81628 53.896C5.81628 55.61 7.19766 57 8.90101 57H49.2622C50.9655 57 52.3469 55.61 52.3469 53.896C52.3469 43.6016 44.0586 35.2615 33.8281 35.2615H24.3351Z" fill="black"/>
</g>
</mask>
<g mask="url(#mask0_666_2821)">
<circle cx="28.5" cy="28.5" r="28.5" fill="#D9D9D9"/>
</g>
<defs>
<clipPath id="clip0_666_2821">
<rect width="46.5306" height="53.5102" fill="white" transform="translate(5.81628 3.48981)"/>
</clipPath>
</defs>
</svg>
